<?xml version="1.0" standalone="no"?>
<!DOCTYPE svg PUBLIC "-//W3C//DTD SVG 20010904//EN"
 "http://www.w3.org/TR/2001/REC-SVG-20010904/DTD/svg10.dtd">
<svg version="1.0" xmlns="http://www.w3.org/2000/svg"
 width="519.000000pt" height="519.000000pt" viewBox="0 0 519.000000 519.000000"
 preserveAspectRatio="xMidYMid meet">
<metadata>
Created by potrace 1.11, written by Peter Selinger 2001-2013
</metadata>
<g transform="translate(0.000000,519.000000) scale(0.100000,-0.100000)"
fill="#000000" stroke="none">
<path d="M0 2595 l0 -2595 2595 0 2595 0 0 2595 0 2595 -2595 0 -2595 0 0
-2595z m4110 2235 c16 -11 52 -55 81 -98 92 -139 206 -282 279 -354 38 -37 62
-88 56 -120 -8 -39 -50 -78 -90 -84 -47 -7 -82 21 -170 137 -101 133 -133 170
-165 192 -42 28 -92 38 -134 26 -88 -24 -420 -280 -507 -390 -31 -40 -40 -59
-40 -90 0 -21 4 -39 8 -39 5 0 13 -10 19 -22 11 -24 131 -185 160 -216 10 -10
49 -53 86 -95 51 -57 75 -77 93 -77 55 0 242 163 267 234 15 41 -15 104 -82
173 -94 97 -111 148 -66 201 41 48 90 50 141 6 21 -19 85 -116 125 -189 58
-106 118 -181 217 -272 189 -173 232 -222 232 -259 0 -38 -38 -89 -74 -98 -52
-13 -80 8 -182 134 -86 106 -147 133 -212 93 -39 -25 -120 -90 -169 -137 -75
-71 -72 -78 153 -347 191 -227 225 -250 307 -210 23 12 65 41 92 66 52 47 119
85 149 85 27 0 76 -55 76 -85 0 -57 -13 -71 -175 -180 -70 -47 -137 -95 -148
-106 -12 -12 -41 -34 -63 -50 -23 -15 -93 -82 -155 -147 -154 -161 -198 -182
-258 -120 -22 22 -31 41 -31 64 0 33 17 52 130 139 76 58 86 96 48 172 -18 37
-137 188 -313 398 -50 59 -145 175 -185 225 -19 24 -42 50 -50 58 -8 9 -24 28
-35 42 -67 91 -273 325 -304 344 -89 56 -130 48 -223 -46 -67 -66 -73 -70
-107 -64 -48 7 -91 55 -91 99 0 40 32 78 105 127 121 81 201 135 215 146 8 7
60 48 116 92 55 44 120 99 145 123 74 74 325 299 400 359 24 19 71 61 104 93
99 97 159 114 225 67z m-1542 -1374 c44 -47 44 -48 40 -107 -5 -69 -26 -103
-84 -136 -129 -74 -278 54 -220 190 29 68 95 108 170 103 44 -3 55 -9 94 -50z
m255 -313 c19 -16 57 -57 83 -93 26 -36 52 -70 58 -76 17 -18 48 -56 86 -104
19 -25 37 -47 40 -50 3 -3 16 -19 30 -36 55 -68 97 -119 131 -160 20 -23 71
-84 112 -136 140 -172 224 -248 277 -248 6 0 40 29 75 65 63 62 76 70 120 65
27 -2 62 -36 69 -66 14 -56 -44 -121 -197 -219 -84 -53 -89 -58 -216 -183
-113 -111 -167 -148 -202 -137 -29 10 -79 67 -79 92 0 31 52 87 116 125 68 41
75 66 39 142 -14 30 -45 76 -69 103 -23 26 -104 122 -180 213 -76 91 -146 175
-157 187 -10 13 -43 56 -73 95 -29 40 -71 87 -92 104 -89 71 -119 72 -182 7
-87 -89 -128 -103 -179 -59 -22 19 -28 32 -28 66 0 39 5 47 56 94 30 28 73 60
94 71 22 11 72 53 113 93 82 81 100 86 155 45z m-827 -21 c36 -29 56 -67 48
-96 -3 -15 -35 -51 -72 -84 -37 -31 -75 -66 -84 -77 -38 -43 -68 -124 -88
-235 -11 -63 -42 -236 -69 -384 -26 -148 -46 -277 -44 -287 8 -28 5 -27 571
-169 587 -148 665 -155 743 -73 42 44 116 93 142 93 26 0 87 -63 87 -90 0 -41
-35 -82 -120 -138 -145 -96 -361 -276 -505 -419 -72 -72 -130 -113 -160 -113
-31 0 -85 63 -85 98 0 40 21 64 123 140 153 114 166 134 114 160 -12 7 -222
61 -467 122 -529 131 -475 119 -490 110 -10 -6 -79 -375 -80 -428 0 -21 35
-67 202 -268 76 -91 151 -128 220 -111 13 4 56 38 95 77 55 53 80 70 101 70
60 0 102 -40 102 -99 0 -34 -85 -113 -195 -180 -132 -82 -239 -173 -394 -336
-95 -100 -152 -118 -202 -64 -57 61 -36 108 81 183 78 49 103 105 81 183 -8
29 -80 132 -143 205 -13 15 -36 43 -53 64 -38 47 -157 190 -192 229 -14 17
-83 100 -152 185 -69 85 -133 162 -141 170 -8 9 -30 35 -48 57 -136 170 -198
216 -273 206 -27 -4 -55 -21 -103 -64 -109 -97 -138 -104 -190 -52 -41 41 -36
93 14 143 22 22 46 40 54 40 8 0 16 4 18 9 1 4 52 38 111 76 87 54 137 96 261
219 170 169 202 196 240 196 50 0 92 -58 87 -119 -1 -15 -56 -68 -119 -116
-67 -51 -87 -105 -62 -170 13 -34 206 -289 275 -362 14 -16 51 -60 83 -100 31
-40 60 -72 63 -72 7 -1 24 73 43 194 21 125 65 381 75 435 31 161 71 415 71
449 0 74 -41 56 -195 -82 -33 -31 -76 -49 -100 -43 -39 10 -75 55 -75 94 0 53
56 101 315 271 91 60 152 115 280 250 111 118 155 141 201 103z"/>
</g>
</svg>
