<?xml version="1.0" standalone="no"?>
<!DOCTYPE svg PUBLIC "-//W3C//DTD SVG 20010904//EN"
 "http://www.w3.org/TR/2001/REC-SVG-20010904/DTD/svg10.dtd">
<svg version="1.0" xmlns="http://www.w3.org/2000/svg"
 width="537.000000pt" height="537.000000pt" viewBox="0 0 537.000000 537.000000"
 preserveAspectRatio="xMidYMid meet">
<metadata>
Created by potrace 1.11, written by Peter Selinger 2001-2013
</metadata>
<g transform="translate(0.000000,537.000000) scale(0.100000,-0.100000)"
fill="#000000" stroke="none">
<path d="M2515 5344 c-451 -43 -732 -120 -1075 -294 -764 -388 -1267 -1091
-1381 -1930 -17 -122 -17 -458 0 -580 74 -549 302 -1019 686 -1419 87 -91 249
-234 326 -286 l37 -26 85 88 c47 49 126 121 175 162 l89 73 -23 87 c-13 47
-42 165 -64 261 -297 1321 -359 2778 -136 3246 57 120 127 174 226 174 161 0
315 -198 473 -610 241 -627 453 -1744 503 -2642 l7 -128 151 7 c136 5 346 -7
413 -24 23 -5 23 -3 23 83 0 49 5 172 10 274 68 1241 320 2437 600 2850 45 67
119 137 165 156 73 30 180 8 233 -49 117 -125 193 -412 234 -887 16 -188 16
-905 0 -1150 -39 -578 -99 -1058 -193 -1545 l-40 -210 107 -108 107 -108 37
26 c76 53 238 195 325 286 384 400 612 870 686 1419 17 122 17 458 0 580 -100
733 -492 1360 -1109 1771 -352 234 -736 377 -1165 435 -109 14 -432 26 -512
18z"/>
</g>
</svg>
