<?xml version="1.0" standalone="no"?>
<!DOCTYPE svg PUBLIC "-//W3C//DTD SVG 20010904//EN"
 "http://www.w3.org/TR/2001/REC-SVG-20010904/DTD/svg10.dtd">
<svg version="1.0" xmlns="http://www.w3.org/2000/svg"
 width="187.000000pt" height="187.000000pt" viewBox="0 0 187.000000 187.000000"
 preserveAspectRatio="xMidYMid meet">
<metadata>
Created by potrace 1.11, written by Peter Selinger 2001-2013
</metadata>
<g transform="translate(0.000000,187.000000) scale(0.100000,-0.100000)"
fill="#000000" stroke="none">
<path d="M0 935 l0 -935 935 0 935 0 0 935 0 935 -935 0 -935 0 0 -935z m521
722 c39 -26 66 -89 56 -129 -26 -101 -156 -135 -221 -57 -95 113 43 268 165
186z m489 -27 l0 -50 45 0 c25 0 45 -3 45 -7 0 -5 -11 -26 -24 -48 l-25 -40
26 -27 25 -26 44 23 c24 13 61 26 83 30 l40 7 -5 42 c-15 106 91 180 186 131
30 -15 60 -61 60 -89 0 -12 14 -14 69 -13 80 2 114 -15 143 -74 35 -68 14
-230 -34 -264 l-21 -14 26 -79 c27 -82 57 -231 57 -285 0 -35 -25 -67 -51 -67
-26 0 -49 39 -49 84 0 22 -5 68 -11 104 l-11 64 -19 -29 c-14 -21 -19 -47 -20
-103 0 -41 -4 -111 -8 -155 -7 -65 -3 -120 21 -293 30 -224 29 -240 -13 -262
-28 -16 -77 -3 -91 23 -6 12 -25 118 -42 236 -30 206 -44 254 -61 199 -9 -29
-127 -348 -150 -405 -20 -49 -57 -70 -98 -54 -54 21 -54 52 1 199 33 87 46
135 39 137 -7 2 -25 6 -40 10 -16 3 -39 17 -52 31 l-23 24 -6 -23 c-17 -68
-98 -120 -180 -116 -37 2 -60 -3 -77 -15 -33 -23 -96 -39 -125 -32 -24 6 -24
6 -24 -84 0 -83 -2 -93 -25 -115 -29 -30 -54 -32 -88 -5 -24 19 -25 24 -29
159 -3 120 -6 142 -22 160 -29 32 -36 26 -36 -29 0 -31 -8 -66 -20 -90 -14
-27 -20 -59 -20 -105 0 -57 -3 -69 -25 -90 -13 -14 -36 -25 -50 -25 -38 0 -75
42 -75 84 0 32 -3 36 -38 46 -91 24 -101 64 -104 443 -3 335 4 395 51 450 15
18 33 46 40 64 43 106 229 153 364 91 56 -26 59 -27 93 -11 28 14 43 15 84 7
43 -9 54 -8 77 8 30 19 19 24 -21 8 -32 -12 -34 2 -6 48 11 18 20 36 20 40 0
4 -16 18 -36 31 l-36 25 41 24 42 24 -32 56 c-26 46 -28 54 -12 50 117 -34
113 -34 151 -11 55 33 62 30 62 -27z"/>
<path d="M937 1613 c-22 -11 -36 -12 -58 -4 -34 12 -39 -1 -14 -36 15 -21 14
-23 -15 -38 -37 -19 -38 -28 -4 -45 25 -14 26 -22 9 -62 -6 -16 -3 -17 25 -11
25 4 35 2 42 -10 11 -21 27 -21 64 -2 16 8 40 15 53 15 l24 0 -21 23 c-26 27
-28 46 -7 73 22 29 18 34 -24 34 -39 0 -40 1 -43 39 l-3 39 -28 -15z"/>
<path d="M1378 1412 c-103 -26 -193 -53 -200 -60 -17 -17 -25 -671 -8 -702 14
-25 51 -26 81 -1 23 19 24 25 27 184 l3 164 102 23 c56 12 110 26 120 31 17
10 23 44 9 53 -5 3 -59 -8 -120 -24 l-112 -28 0 139 0 138 38 10 c20 6 73 19
117 29 l80 19 5 -36 c8 -50 17 -61 49 -61 46 0 62 28 59 101 -3 63 -3 64 -33
66 -16 1 -114 -20 -217 -45z"/>
<path d="M1035 1391 c-38 -8 -39 -25 -1 -29 26 -3 45 10 46 31 0 8 -1 8 -45
-2z"/>
<path d="M876 1254 c-43 -43 -29 -104 23 -104 31 0 81 48 81 76 0 57 -59 72
-104 28z"/>
<path d="M528 1038 l-173 -213 -3 149 c-1 90 -7 155 -14 163 -16 19 -55 16
-78 -7 -19 -19 -20 -33 -20 -354 0 -184 3 -341 6 -350 9 -23 60 -20 84 4 22
22 22 20 20 185 -1 121 4 155 23 155 5 0 53 -39 106 -88 191 -173 189 -172
221 -172 31 0 70 30 70 53 0 8 -70 76 -155 151 -85 75 -155 140 -155 144 0 4
68 88 150 187 83 99 149 184 147 190 -2 5 -15 11 -29 13 -23 3 -47 -22 -200
-210z"/>
<path d="M876 1064 c-14 -13 -16 -50 -16 -253 0 -265 1 -270 59 -250 17 6 36
19 41 29 11 20 14 448 4 474 -8 21 -67 21 -88 0z"/>
<path d="M696 979 c-31 -39 -52 -75 -56 -100 -7 -37 -6 -40 51 -89 31 -27 59
-50 61 -50 2 0 3 67 3 150 0 82 -2 150 -5 149 -3 0 -27 -27 -54 -60z"/>
</g>
</svg>
